<svg width="152" height="132" viewBox="0 0 152 132" fill="none" xmlns="http://www.w3.org/2000/svg">
<path d="M57.9473 30.8823C65.8717 17.1568 85.6827 17.1569 93.6072 30.8824L133.725 100.368C141.649 114.093 131.743 131.25 115.895 131.25H35.6598C19.811 131.25 9.90552 114.093 17.8299 100.368L57.9473 30.8823Z" fill="#DF9F3B"/>
<path d="M76.8553 65.3731C80.7567 65.3731 83.889 66.4422 86.2524 68.5804C88.6532 70.6812 89.8537 73.5885 89.8537 77.3023C89.8537 80.9786 88.672 83.7921 86.3086 85.7428C83.9453 87.656 80.8129 88.6126 76.9116 88.6126L76.6865 92.9454H69.7653L69.4839 83.3795H72.0161C75.2797 83.3795 77.7931 82.9481 79.5562 82.0852C81.3194 81.2224 82.2009 79.6469 82.2009 77.3586C82.2009 75.708 81.7133 74.395 80.7379 73.4197C79.8001 72.4443 78.5059 71.9566 76.8553 71.9566C75.1297 71.9566 73.7792 72.4256 72.8038 73.3634C71.866 74.3012 71.3971 75.5954 71.3971 77.246H63.9695C63.9319 74.9577 64.4196 72.9132 65.4325 71.1126C66.4453 69.312 67.9271 67.9052 69.8778 66.8923C71.866 65.8795 74.1918 65.3731 76.8553 65.3731ZM73.1977 106.394C71.7722 106.394 70.5906 105.962 69.6527 105.1C68.7524 104.199 68.3022 103.093 68.3022 101.78C68.3022 100.467 68.7524 99.3789 69.6527 98.5161C70.5906 97.6158 71.7722 97.1656 73.1977 97.1656C74.5857 97.1656 75.7299 97.6158 76.6302 98.5161C77.5305 99.3789 77.9807 100.467 77.9807 101.78C77.9807 103.093 77.5305 104.199 76.6302 105.1C75.7299 105.962 74.5857 106.394 73.1977 106.394Z" fill="white"/>
</svg>
