<svg width="27" height="27" viewBox="0 0 27 27" fill="none" xmlns="http://www.w3.org/2000/svg">
<path fill-rule="evenodd" clip-rule="evenodd" d="M13.0812 23.0456C10.6861 21.5715 8.45789 19.8365 6.43657 17.8719C5.0155 16.457 3.93364 14.7322 3.27388 12.8294C2.08661 9.13827 3.47342 4.91263 7.35445 3.66208C9.39417 3.00543 11.6218 3.38074 13.3406 4.67059C15.06 3.38232 17.287 3.00714 19.3268 3.66208C23.2079 4.91263 24.6046 9.13827 23.4173 12.8294C22.7576 14.7322 21.6758 16.457 20.2546 17.8719C18.2333 19.8365 16.0051 21.5715 13.61 23.0456L13.3506 23.2069L13.0812 23.0456Z" stroke="#A1A1A1" stroke-width="1.65517" stroke-linecap="round" stroke-linejoin="round"/>
<path d="M17.4707 7.81711C18.6462 8.19261 19.4814 9.24795 19.5858 10.4896" stroke="#A1A1A1" stroke-width="1.65517" stroke-linecap="round" stroke-linejoin="round"/>
</svg>
