<svg width="25" height="27" viewBox="0 0 25 27" fill="none" xmlns="http://www.w3.org/2000/svg">
<mask id="path-1-inside-1_599_525" fill="white">
<path d="M18.4914 25.0553H5.738C2.72035 25.0553 0.275391 22.5993 0.275391 19.5817V11.4208C0.275391 9.92297 1.20051 8.03969 2.38995 7.11457L8.32614 2.48897C10.1103 1.10129 12.9628 1.03521 14.813 2.33478L21.6192 7.10356C22.9298 8.01766 23.9541 9.97804 23.9541 11.575V19.5927C23.9541 22.5993 21.5091 25.0553 18.4914 25.0553ZM9.33936 3.78854L3.40318 8.41414C2.62123 9.03089 1.92739 10.4296 1.92739 11.4208V19.5817C1.92739 21.6852 3.63446 23.4033 5.738 23.4033H18.4914C20.595 23.4033 22.3021 21.6962 22.3021 19.5927V11.575C22.3021 10.5177 21.5421 9.05292 20.6721 8.4582L13.8658 3.68942C12.6103 2.80836 10.5398 2.85241 9.33936 3.78854Z"/>
</mask>
<path d="M18.4914 25.0553H5.738C2.72035 25.0553 0.275391 22.5993 0.275391 19.5817V11.4208C0.275391 9.92297 1.20051 8.03969 2.38995 7.11457L8.32614 2.48897C10.1103 1.10129 12.9628 1.03521 14.813 2.33478L21.6192 7.10356C22.9298 8.01766 23.9541 9.97804 23.9541 11.575V19.5927C23.9541 22.5993 21.5091 25.0553 18.4914 25.0553ZM9.33936 3.78854L3.40318 8.41414C2.62123 9.03089 1.92739 10.4296 1.92739 11.4208V19.5817C1.92739 21.6852 3.63446 23.4033 5.738 23.4033H18.4914C20.595 23.4033 22.3021 21.6962 22.3021 19.5927V11.575C22.3021 10.5177 21.5421 9.05292 20.6721 8.4582L13.8658 3.68942C12.6103 2.80836 10.5398 2.85241 9.33936 3.78854Z" fill="#707B81"/>
<path d="M2.38995 7.11457L3.74226 8.85325L3.74382 8.85204L2.38995 7.11457ZM8.32614 2.48897L6.97383 0.750291L6.97227 0.751507L8.32614 2.48897ZM14.813 2.33478L13.547 4.13726L13.5491 4.13873L14.813 2.33478ZM21.6192 7.10356L20.3553 8.90751L20.3591 8.91019L21.6192 7.10356ZM9.33936 3.78854L10.6932 5.52601L10.6939 5.52551L9.33936 3.78854ZM3.40318 8.41414L2.04929 6.67665L2.0391 6.68469L3.40318 8.41414ZM20.6721 8.4582L19.4082 10.2621L19.4186 10.2695L19.4291 10.2766L20.6721 8.4582ZM13.8658 3.68942L12.6006 5.49243L12.6019 5.49337L13.8658 3.68942ZM18.4914 22.8526H5.738V27.258H18.4914V22.8526ZM5.738 22.8526C3.94262 22.8526 2.47806 21.3886 2.47806 19.5817H-1.92728C-1.92728 23.81 1.49808 27.258 5.738 27.258V22.8526ZM2.47806 19.5817V11.4208H-1.92728V19.5817H2.47806ZM2.47806 11.4208C2.47806 11.0883 2.59245 10.5763 2.86374 10.0239C3.13469 9.47218 3.4723 9.06321 3.74226 8.85325L1.03764 5.37589C0.118157 6.09105 -0.601505 7.08629 -1.09048 8.08195C-1.57911 9.07691 -1.92728 10.2554 -1.92728 11.4208H2.47806ZM3.74382 8.85204L9.68001 4.22644L6.97227 0.751507L1.03608 5.37711L3.74382 8.85204ZM9.67844 4.22765C10.6964 3.43592 12.4864 3.39234 13.547 4.13726L16.079 0.532308C13.4391 -1.32192 9.52421 -1.23334 6.97383 0.750291L9.67844 4.22765ZM13.5491 4.13873L20.3553 8.9075L22.8832 5.29961L16.0769 0.530838L13.5491 4.13873ZM20.3591 8.91019C20.658 9.11865 21.0283 9.5335 21.3257 10.1029C21.6231 10.6724 21.7514 11.2123 21.7514 11.575H26.1567C26.1567 10.3407 25.7729 9.10196 25.2305 8.06353C24.6881 7.02497 23.891 6.00258 22.8793 5.29693L20.3591 8.91019ZM21.7514 11.575V19.5927H26.1567V11.575H21.7514ZM21.7514 19.5927C21.7514 21.3857 20.2897 22.8526 18.4914 22.8526V27.258C22.7285 27.258 26.1567 23.8129 26.1567 19.5927H21.7514ZM7.9855 2.05108L2.04931 6.67668L4.75705 10.1516L10.6932 5.52601L7.9855 2.05108ZM2.0391 6.68469C1.31042 7.25942 0.759385 8.06609 0.396037 8.80386C0.0340414 9.53887 -0.275276 10.4767 -0.275276 11.4208H4.13006C4.13006 11.4235 4.12998 11.4053 4.13618 11.3646C4.14228 11.3247 4.15321 11.2712 4.17141 11.2052C4.20849 11.0708 4.26782 10.9132 4.34807 10.7502C4.52713 10.3867 4.71399 10.1856 4.76726 10.1436L2.0391 6.68469ZM-0.275276 11.4208V19.5817H4.13006V11.4208H-0.275276ZM-0.275276 19.5817C-0.275276 22.8934 2.40969 25.606 5.738 25.606V21.2006C4.85922 21.2006 4.13006 20.477 4.13006 19.5817H-0.275276ZM5.738 25.606H18.4914V21.2006H5.738V25.606ZM18.4914 25.606C21.8115 25.606 24.5047 22.9127 24.5047 19.5927H20.0994C20.0994 20.4797 19.3785 21.2006 18.4914 21.2006V25.606ZM24.5047 19.5927V11.575H20.0994V19.5927H24.5047ZM24.5047 11.575C24.5047 10.5822 24.1696 9.59765 23.7663 8.82441C23.364 8.05319 22.7451 7.20711 21.9151 6.63976L19.4291 10.2766C19.4271 10.2753 19.4428 10.2859 19.4733 10.315C19.5034 10.3436 19.542 10.3845 19.5866 10.4392C19.6775 10.5507 19.7737 10.6955 19.8604 10.8618C19.9471 11.028 20.0119 11.1917 20.0527 11.3338C20.0952 11.4817 20.0994 11.5629 20.0994 11.575H24.5047ZM21.936 6.65425L15.1298 1.88548L12.6019 5.49337L19.4082 10.2621L21.936 6.65425ZM15.1311 1.88642C14.0437 1.12334 12.7262 0.829516 11.5342 0.855386C10.3433 0.881232 9.03628 1.23166 7.98485 2.05158L10.6939 5.52551C10.8429 5.40929 11.1714 5.26963 11.6297 5.25968C12.087 5.24976 12.4324 5.37444 12.6006 5.49243L15.1311 1.88642Z" fill="#707B81" mask="url(#path-1-inside-1_599_525)"/>
<path d="M12.1146 20.0993C11.9672 20.0993 11.8392 19.9714 11.8392 19.824V16.52C11.8392 16.3725 11.9672 16.2446 12.1146 16.2446C12.262 16.2446 12.3899 16.3725 12.3899 16.52V19.824C12.3899 19.9714 12.262 20.0993 12.1146 20.0993Z" fill="#707B81" stroke="#707B81" stroke-width="1.10133"/>
</svg>
