<svg width="207" height="178" viewBox="0 0 207 178" fill="none" xmlns="http://www.w3.org/2000/svg">
<g clip-path="url(#clip0_227_3978)">
<path d="M86.1056 154.638L88.3664 147.287C85.6462 144.297 82.2362 142.016 78.4326 140.641C82.1487 146.788 78.5478 154.807 80.0484 161.829C80.5332 164.016 81.5046 166.066 82.8906 167.826C84.2765 169.587 86.0416 171.014 88.0549 172.001L91.4857 176.245C93.2844 173.108 94.3803 169.618 94.6982 166.017C95.016 162.416 94.5481 158.788 93.3268 155.385C92.6227 153.482 91.6814 151.676 90.5253 150.008C88.4865 152.402 86.1056 154.638 86.1056 154.638Z" fill="#F2F2F2"/>
<path d="M73.674 155.578L72.4138 147.991C68.6439 146.527 64.5729 146.003 60.5544 146.467C66.6262 150.314 66.985 159.094 71.4645 164.711C72.8751 166.452 74.66 167.854 76.687 168.813C78.7139 169.772 80.931 170.263 83.1739 170.25L88.1405 172.521C88.3489 168.912 87.7711 165.3 86.447 161.936C85.123 158.571 83.084 155.533 80.4708 153.03C78.9908 151.641 77.3415 150.443 75.5618 149.466C74.8059 152.515 73.674 155.578 73.674 155.578Z" fill="#F2F2F2"/>
<path d="M147.67 174.359L144.187 174.358L142.531 160.946L147.671 160.947L147.67 174.359Z" fill="#FFB6B6"/>
<path d="M148.558 177.729L137.329 177.729V177.587C137.329 176.43 137.79 175.32 138.609 174.501C139.429 173.683 140.541 173.223 141.7 173.223H141.7L143.751 171.669L147.578 173.223L148.558 173.223L148.558 177.729Z" fill="#2F2E41"/>
<path d="M203.925 161.676L201.551 164.219L190.595 156.285L194.099 152.531L203.925 161.676Z" fill="#FFB6B6"/>
<path d="M207 163.325L199.344 171.527L199.24 171.43C198.392 170.641 197.893 169.548 197.852 168.391C197.811 167.234 198.232 166.109 199.023 165.262L199.283 162.704L203.031 160.969L203.699 160.253L207 163.325Z" fill="#2F2E41"/>
<path d="M198.772 154.138L195.091 161.825L172.488 146.882L169.2 142.409L158.418 127.741L154.035 134.684L150.986 141.943C149.992 142.59 149.154 143.45 148.534 144.46C147.913 145.47 147.525 146.604 147.397 147.782L147.257 149.067L149.184 166.364L141.86 168.61L137.654 145.374L139.029 140.339L140.444 133.271L147.572 110.936H166.646L177.586 134.187L178.386 138.925L181.488 142.48L198.772 154.138Z" fill="#464646"/>
<path d="M159.133 74.3953L162.344 76.8366L166.216 78.0247C166.216 78.0247 167.817 100.508 169.26 101.949C170.702 103.389 169.401 103.428 169.691 105.299C169.981 107.169 170.685 111.005 170.685 111.005C160.949 116.151 152.555 116.289 145.812 110.267C145.726 109.895 145.77 109.504 145.937 109.16C146.103 108.815 146.383 108.538 146.729 108.374C147.984 107.71 145.572 104.607 146.597 104.088C147.623 103.569 146.181 99.0681 146.181 99.0681L147.127 89.6777L146.379 88.1766L148.204 78.9917L151.369 77.8373L152.634 74.7953L159.133 74.3953Z" fill="#7E74EB"/>
<path d="M161.145 114.356C161.13 113.95 161.205 113.546 161.364 113.172C161.523 112.798 161.762 112.464 162.065 112.192C162.367 111.92 162.726 111.718 163.115 111.6C163.504 111.481 163.915 111.449 164.318 111.507L168.843 102.725L171.364 107.197L166.68 114.851C166.539 115.52 166.157 116.115 165.607 116.522C165.056 116.929 164.375 117.12 163.693 117.059C163.01 116.998 162.374 116.689 161.904 116.191C161.435 115.693 161.164 115.04 161.145 114.356Z" fill="#FFB6B6"/>
<path d="M168.765 112.208L178.471 97.1883L178.439 97.1192C178.402 97.04 176.204 92.3005 174.075 87.9594C173.747 87.2908 173.42 86.6318 173.104 86.0006C172.967 85.7282 172.833 85.4615 172.7 85.2005C171.806 83.4398 171.024 81.9846 170.558 81.2933C169.526 79.7304 167.99 78.5668 166.204 77.9958L166.159 77.9843L166.116 78.0022C165.243 78.3701 164.521 79.0242 164.07 79.8567C163.619 80.6891 163.466 81.6502 163.635 82.5814C164.477 87.073 166.353 91.3078 169.115 94.9515L170.688 97.0223L165.22 108.892L168.765 112.208Z" fill="#7E74EB"/>
<path d="M135.39 54.6348C135.657 54.9412 135.854 55.3024 135.966 55.6929C136.079 56.0834 136.104 56.4938 136.04 56.895C135.976 57.2963 135.825 57.6788 135.598 58.0155C135.37 58.3522 135.071 58.635 134.722 58.8439L136.745 68.5113L131.966 66.622L130.778 57.7313C130.465 57.1226 130.387 56.4206 130.558 55.7582C130.729 55.0959 131.138 54.5192 131.706 54.1375C132.275 53.7558 132.964 53.5957 133.643 53.6873C134.322 53.779 134.943 54.1161 135.39 54.6348Z" fill="#FFB6B6"/>
<path d="M130.825 61.0952L132.758 78.8655L132.826 78.899C132.882 78.9267 135.331 80.1258 138.336 81.5539C138.843 81.7948 138.771 82.8384 139.301 83.0878C139.666 83.2596 140.63 82.6362 140.998 82.8084C144.283 84.3423 147.605 85.8339 148.929 86.238C150.716 86.8034 152.644 86.7415 154.391 86.0625L154.433 86.0432L154.455 86.0024C154.901 85.1674 155.049 84.2055 154.875 83.2753C154.7 82.345 154.213 81.5019 153.494 80.885C150.008 77.9251 145.88 75.8148 141.436 74.7207L138.908 74.1014L135.67 61.4425L130.825 61.0952Z" fill="#7E74EB"/>
<path d="M155.71 73.3885C159.217 73.3885 162.061 70.5493 162.061 67.047C162.061 63.5447 159.217 60.7055 155.71 60.7055C152.202 60.7055 149.358 63.5447 149.358 67.047C149.358 70.5493 152.202 73.3885 155.71 73.3885Z" fill="#FFB6B6"/>
<path d="M149.404 62.7977C149.926 61.2805 152.526 60.2281 156.741 60.0818C160.957 59.9355 162.026 64.8952 162.026 64.8952C164.839 67.1744 159.021 73.2762 158.739 73.0565L158.866 71.9101C159.076 70.0112 159.966 68.5295 158.834 66.5505L157.746 66.563C156.341 66.8327 154.937 67.1024 153.532 67.372L155.195 65.9101L155.148 65.8377C154.441 66.2056 153.671 66.4389 152.878 66.5259C151.985 66.5783 151.008 66.2232 150.579 65.438C150.465 65.2222 150.395 64.9857 150.374 64.7425C149.169 65.2233 148.618 66.7069 148.618 66.7069C148.618 66.7069 148.882 64.3149 149.404 62.7977Z" fill="#2F2E41"/>
<path d="M25.5887 63.1781C25.5025 63.069 25.4097 62.9653 25.3108 62.8675C25.335 62.8343 25.3591 62.7981 25.3833 62.765L25.5887 63.1781Z" fill="#2F2E41"/>
<path d="M26.8239 88.6832C25.785 90.5257 23.7102 91.554 21.6535 92.0576C19.3433 92.6618 16.9107 92.6148 14.6257 91.9219C14.3358 91.8284 14.0458 91.7199 13.765 91.5992C13.9 91.2412 14.007 90.8732 14.0851 90.4986C14.1902 89.9917 14.2429 89.4753 14.2422 88.9577C14.0133 89.4035 13.7169 89.8114 13.3633 90.1669C13.0906 90.453 12.7808 90.7014 12.4422 90.9057C11.3919 90.2692 10.4825 89.4258 9.76938 88.4269C9.81467 88.3154 9.85999 88.2038 9.90227 88.0922C10.1216 87.5095 10.2952 86.9106 10.4217 86.301C10.5933 85.4767 10.6793 84.637 10.6784 83.7951C10.3061 84.5205 9.82312 85.1838 9.24689 85.7612C9.07413 85.9458 8.8906 86.12 8.69725 86.2829C8.39782 85.3749 8.28207 84.4166 8.35672 83.4636C8.43138 82.5105 8.69495 81.5818 9.13213 80.7314C10.3281 78.524 12.6475 77.2123 14.7133 75.7859C16.7821 74.3596 18.8508 72.4297 19.026 69.9238C19.1438 68.2321 18.3586 66.5374 18.6726 64.8728C18.8047 64.1709 19.1272 63.5186 19.605 62.987C20.0827 62.4555 20.6974 62.065 21.3821 61.8582C22.0667 61.6513 22.7951 61.6361 23.4879 61.814C24.1806 61.992 24.8112 62.3564 25.3108 62.8675C24.139 64.526 22.9733 66.2418 22.4991 68.214C22.0159 70.2223 22.4115 72.5774 23.9971 73.9073C24.5407 74.3656 25.2081 74.6913 25.6279 75.2642C26.1867 76.0241 26.1897 77.0373 26.2803 77.9722C26.4615 79.7905 27.0565 81.5395 27.3766 83.3398C27.6997 85.137 27.7179 87.088 26.8239 88.6832Z" fill="#2F2E41"/>
<path d="M5.52661 163.463L8.28302 165.589L17.8091 155.986L13.7409 152.848L5.52661 163.463Z" fill="#A0616A"/>
<path d="M5.64394 161.385L10.202 164.487L8.75955 166.351L10.6914 172.404C10.7868 172.703 10.7841 173.024 10.6835 173.322C10.583 173.619 10.3899 173.876 10.1325 174.056C9.87506 174.236 9.56678 174.329 9.25264 174.322C8.9385 174.314 8.63495 174.207 8.38632 174.015L3.19903 170.013L3.73172 167.479L1.95581 169.054L0 167.545L5.64394 161.385Z" fill="#2F2E41"/>
<path d="M19.5107 68.5356C19.5103 69.6109 19.7743 70.6698 20.2795 71.6194C20.7846 72.5691 21.5156 73.3804 22.4081 73.9822C23.3006 74.5839 24.3274 74.9577 25.3983 75.0708C26.4693 75.1838 27.5517 75.0326 28.5505 74.6304C29.5492 74.2283 30.4339 73.5875 31.1267 72.7643C31.8196 71.941 32.2994 70.9606 32.5242 69.909C32.7489 68.8574 32.7117 67.7667 32.4158 66.7328C32.1199 65.6989 31.5743 64.7534 30.8269 63.9792L30.7953 63.9477C30.7427 63.8925 30.69 63.8373 30.6348 63.7847L30.6338 63.7846L30.6329 63.784L30.6323 63.7831L30.6322 63.7821C30.5637 63.7191 30.4953 63.656 30.4242 63.5956C29.2663 62.5813 27.6388 61.4804 25.9783 61.4804C22.3439 61.4804 19.5107 64.9068 19.5107 68.5356Z" fill="#2F2E41"/>
<path d="M57.0109 65.1621C57.0424 65.5124 56.9966 65.8654 56.8766 66.1962C56.7567 66.527 56.5656 66.8275 56.3168 67.0765C56.068 67.3256 55.7675 67.5171 55.4366 67.6377C55.1056 67.7583 54.7522 67.8049 54.4012 67.7743L38.1095 82.4616L35.3059 78.0404L52.2017 64.9935C52.2922 64.4082 52.5946 63.8763 53.0516 63.4988C53.5086 63.1212 54.0885 62.9241 54.6813 62.9449C55.2741 62.9657 55.8386 63.2029 56.268 63.6115C56.6974 64.0201 56.9617 64.5718 57.0109 65.1621Z" fill="#FFB6B6"/>
<path d="M31.1468 86.8948C31.1468 86.8948 31.753 88.0126 33.8236 86.2866C35.4812 84.9047 43.423 78.9057 45.1339 76.4474C45.5246 76.602 45.9556 76.6223 46.3592 76.5053C46.7627 76.3883 47.1158 76.1406 47.3629 75.8012L42.6751 71.7019C41.2725 71.8632 41.3025 72.804 41.4486 73.3381L37.9125 74.9378L28.7812 80.7644L30.6943 86.0945L31.1468 86.8948Z" fill="#7E74EB"/>
<path d="M22.3006 97.1936L21.9591 98.8172L21.6692 104.806L34.4345 105.507L34.038 96.2954L32.8007 94.2655L22.3006 97.1936Z" fill="#FFB6B6"/>
<path d="M27.7108 75.564C30.7577 75.564 33.2277 73.0977 33.2277 70.0555C33.2277 67.0132 30.7577 64.547 27.7108 64.547C24.6639 64.547 22.1938 67.0132 22.1938 70.0555C22.1938 73.0977 24.6639 75.564 27.7108 75.564Z" fill="#FFB6B6"/>
<path d="M17.9162 90.3733L17.8823 85.7944C17.8815 84.1469 18.4399 82.5477 19.4664 81.2577C20.4929 79.9678 21.9268 79.0632 23.5344 78.6916L23.5552 78.6867L24.6461 77.2191L29.0782 77.6617L29.8906 79.3195L33.1022 81.2289L34.3387 85.1978C34.875 85.5547 35.3321 86.018 35.6815 86.5587C36.031 87.0995 36.2653 87.7062 36.37 88.3412C36.7898 91.0187 34.9123 93.6977 34.6889 94.0048L34.1135 97.2406L21.5957 99.446L21.4941 99.4588L17.9162 90.3733Z" fill="#7E74EB"/>
<path d="M34.4619 69.0734C33.8184 69.4804 33.1507 69.8479 32.4626 70.1741C31.7641 70.5091 31.0336 70.7728 30.282 70.9611C30.067 70.4901 29.8039 70.0424 29.4968 69.6253C29.5758 70.1195 29.5779 70.623 29.5029 71.1179C28.2572 71.3186 26.9814 71.2141 25.7851 70.8134L24.7462 69.0734L24.6677 71.0154C23.8069 71.1722 22.9492 71.32 22.0885 71.4738C22.0372 71.4798 21.9858 71.4919 21.9375 71.5009C21.4029 69.0945 22.161 66.4439 23.8462 64.8397C24.6829 64.0515 25.7267 63.5168 26.8559 63.2979C27.9851 63.0791 29.1534 63.185 30.2247 63.6033C30.3606 63.6576 30.4995 63.7179 30.6324 63.7812L30.6326 63.7824L30.6332 63.7834L30.6342 63.784L30.6354 63.7842C30.7139 63.8234 30.7804 63.9169 30.8679 63.9079C34.637 63.4887 34.7578 66.4077 34.4619 69.0734Z" fill="#2F2E41"/>
<path d="M25.2839 156.36L28.0446 158.481L37.5514 148.858L33.477 145.728L25.2839 156.36Z" fill="#A0616A"/>
<path d="M25.6473 154.474L30.2117 157.567L28.773 159.434L30.717 165.483C30.8131 165.781 30.811 166.103 30.711 166.4C30.6111 166.698 30.4185 166.956 30.1615 167.136C29.9044 167.317 29.5963 167.41 29.2822 167.403C28.968 167.397 28.6643 167.29 28.4152 167.098L23.2199 163.107L23.7474 160.572L21.9747 162.15L20.0159 160.645L25.6473 154.474Z" fill="#2F2E41"/>
<path d="M16.3257 144.616L16.3255 144.58L17.6339 142.329L16.2979 139.398L16.2578 131.87L16.4744 130.739C16.7657 129.219 16.6809 127.651 16.2275 126.171L16.2031 121.588C16.1561 120.44 17.9373 119.431 17.522 118.473C13.5958 109.427 21.5312 102.526 21.5848 102.47L21.7469 102.302L22.6268 102.967L23.4642 102.968L34.765 105.024L34.8466 105.176C35.291 106.009 36.1489 108.878 36.1997 110.176C36.763 110.827 43.1784 118.24 43.7487 118.755C47.6025 122.236 49.809 127.999 50.7812 131.124C51.0226 131.897 51.0713 132.716 50.923 133.512C50.7746 134.307 50.4337 135.054 49.93 135.688L35.3405 151.644L31.4144 148.025L39.3086 133.662L38.7394 132.205C37.718 132.017 36.7936 131.481 36.124 130.688L34.5255 128.793C34.0829 128.27 33.8017 127.63 33.7158 126.951L32.7464 126.834L29.274 123.194L26.8649 144.978L26.2099 146.699L14.8038 160.087L9.97168 157.072L16.3257 144.616Z" fill="#464646"/>
<path d="M14.5838 51.0796C14.3647 51.355 14.2087 51.6751 14.1268 52.0173C14.045 52.3594 14.0393 52.7154 14.1101 53.06C14.1809 53.4046 14.3265 53.7295 14.5367 54.0118C14.7469 54.2941 15.0165 54.527 15.3266 54.694L11.6997 65.415L14.6613 76.7765L19.4368 74.6209L16.4899 66.0512L18.6947 53.5774C18.9412 53.0387 18.9812 52.4285 18.8071 51.8623C18.6331 51.2961 18.2571 50.8133 17.7504 50.5054C17.2437 50.1975 16.6414 50.0859 16.0578 50.1917C15.4742 50.2975 14.9497 50.6135 14.5838 51.0796Z" fill="#FFB6B6"/>
<path d="M18.9551 86.1378C18.9551 86.1378 17.8335 86.7391 17.0534 84.161C16.4289 82.097 12.1789 70.8903 12.1024 67.8977C11.6909 67.8125 11.3195 67.5931 11.0467 67.2739C10.774 66.9547 10.6153 66.554 10.5957 66.1349L16.7683 65.282C17.8514 66.1862 17.3086 66.9558 16.8926 67.3219L18.9949 70.8775L23.3891 80.4766L19.7736 85.7174L18.9551 86.1378Z" fill="#7E74EB"/>
<path d="M22.0872 71.4733C22.721 69.5646 23.8577 67.8614 25.3778 66.5424C26.898 65.2233 28.7456 64.3371 30.7269 63.9766C30.7348 63.974 30.7611 63.9634 30.7953 63.9477C30.8164 63.9345 30.8427 63.9214 30.869 63.9083C30.7901 63.8636 30.7138 63.8242 30.6348 63.7847L30.6338 63.7846L30.6329 63.784L30.6324 63.7831L30.6322 63.7821C30.5638 63.719 30.4953 63.656 30.4243 63.5956L30.2243 63.6034C30.2243 63.6034 23.1951 62.492 22.0872 71.4733Z" fill="#FD6584"/>
<path d="M112.789 132.857C113.556 131.706 113.102 130.058 111.775 129.176C110.447 128.294 108.749 128.513 107.982 129.664C107.215 130.816 107.669 132.464 108.997 133.345C110.324 134.227 112.022 134.008 112.789 132.857Z" fill="#F2F2F2"/>
<path d="M97.2159 89.8848C97.983 88.7334 97.529 87.0853 96.2017 86.2036C94.8744 85.3219 93.1765 85.5405 92.4093 86.6918C91.6422 87.8432 92.0962 89.4913 93.4235 90.373C94.7508 91.2547 96.4487 91.0361 97.2159 89.8848Z" fill="#F2F2F2"/>
<path d="M162.339 156.04C163.106 154.888 162.652 153.24 161.325 152.358C159.998 151.477 158.3 151.695 157.533 152.847C156.765 153.998 157.22 155.646 158.547 156.528C159.874 157.41 161.572 157.191 162.339 156.04Z" fill="#F2F2F2"/>
<path d="M30.677 17.793C31.4442 16.6417 30.9901 14.9935 29.6628 14.1118C28.3356 13.2301 26.6377 13.4487 25.8705 14.6C25.1033 15.7514 25.5574 17.3995 26.8847 18.2812C28.212 19.1629 29.9099 18.9443 30.677 17.793Z" fill="#F2F2F2"/>
<path d="M92.1194 4.22279C92.8866 3.07145 92.4325 1.42334 91.1052 0.541632C89.7779 -0.340076 88.0801 -0.121501 87.3129 1.02984C86.5457 2.18118 86.9998 3.8293 88.3271 4.71101C89.6544 5.59272 91.3523 5.37412 92.1194 4.22279Z" fill="#F2F2F2"/>
<path d="M63.0403 118.075C63.8075 116.924 63.3534 115.276 62.0261 114.394C60.6988 113.513 59.0009 113.731 58.2338 114.882C57.4666 116.034 57.9207 117.682 59.248 118.564C60.5753 119.445 62.2732 119.227 63.0403 118.075Z" fill="#E6E6E6"/>
<path d="M189.782 178H5.65525C5.566 178 5.4805 177.964 5.41749 177.901C5.35448 177.838 5.31909 177.753 5.31909 177.663C5.31909 177.574 5.35448 177.489 5.41749 177.426C5.4805 177.363 5.566 177.327 5.65525 177.327H189.782C189.871 177.327 189.957 177.362 190.02 177.425C190.084 177.488 190.119 177.574 190.119 177.663C190.119 177.753 190.084 177.838 190.02 177.901C189.957 177.965 189.871 178 189.782 178Z" fill="#CCCCCC"/>
<path d="M39.9256 66.2006C38.3768 66.1961 36.8839 65.6218 35.7324 64.5876C34.5809 63.5533 33.8516 62.1316 33.6838 60.5942L30.0892 27.2605C29.9125 25.6054 30.4007 23.948 31.4464 22.6519C32.4921 21.3557 34.0101 20.5267 35.6673 20.3467L142.4 8.87197C144.057 8.69555 145.717 9.18287 147.015 10.227C148.313 11.2711 149.144 12.7868 149.324 14.4415L152.919 47.7751C153.095 49.4302 152.607 51.0876 151.561 52.3838C150.516 53.68 148.998 54.5091 147.34 54.6891L40.6082 66.1639C40.3815 66.1883 40.1537 66.2005 39.9256 66.2006Z" fill="#E6E6E6"/>
<path d="M141.224 10.4194C141.024 10.4195 140.823 10.4303 140.624 10.4517L37.7397 21.5127C37.0203 21.5901 36.3232 21.8082 35.6883 22.1545C35.0533 22.5008 34.4928 22.9687 34.0389 23.5313C33.585 24.0939 33.2465 24.7402 33.0427 25.4335C32.839 26.1267 32.774 26.8532 32.8515 27.5715L34.669 44.4253C34.9628 47.15 35.7911 49.7902 37.1068 52.1951C38.4225 54.6001 40.1998 56.7228 42.3371 58.442C44.4744 60.1611 46.9299 61.4431 49.5634 62.2148C52.1969 62.9864 54.9568 63.2326 57.6856 62.9392L130.03 55.1614C132.751 54.8689 135.387 54.0443 137.788 52.7346C140.19 51.4249 142.309 49.6558 144.026 47.5282C145.742 45.4006 147.022 42.9563 147.793 40.3348C148.563 37.7133 148.809 34.966 148.516 32.2496L146.692 15.3325C146.546 13.985 145.908 12.7385 144.899 11.8319C143.89 10.9253 142.582 10.4223 141.224 10.4194Z" fill="white"/>
<path d="M102.744 29.0157L66.5783 33.3057C66.4749 33.3182 66.3721 33.2952 66.2758 33.2378C66.1796 33.1805 66.0917 33.09 66.0172 32.9715C65.9428 32.8531 65.8832 32.709 65.8419 32.5475C65.8007 32.386 65.7785 32.2103 65.7767 32.0303C65.7749 31.8504 65.7935 31.6698 65.8315 31.499C65.8694 31.3281 65.926 31.1702 65.9979 31.0344C66.0698 30.8986 66.1556 30.7875 66.2505 30.7074C66.3455 30.6274 66.4475 30.58 66.551 30.568L102.716 26.278C102.82 26.2655 102.922 26.2886 103.019 26.3459C103.115 26.4032 103.203 26.4937 103.277 26.6122C103.352 26.7306 103.411 26.8747 103.453 27.0362C103.494 27.1977 103.516 27.3735 103.518 27.5534C103.52 27.7333 103.501 27.9139 103.463 28.0848C103.425 28.2557 103.369 28.4135 103.297 28.5494C103.225 28.6852 103.139 28.7963 103.044 28.8763C102.949 28.9563 102.847 29.0037 102.744 29.0157Z" fill="#6C63FF"/>
<path d="M103.105 36.5814L66.9694 40.2583C66.7609 40.2795 66.5588 40.1687 66.4075 39.9502C66.2563 39.7317 66.1684 39.4235 66.1631 39.0933C66.1578 38.7631 66.2355 38.438 66.3792 38.1895C66.5229 37.941 66.7207 37.7895 66.9292 37.7683L103.065 34.0914C103.273 34.0702 103.476 34.181 103.627 34.3995C103.778 34.6179 103.866 34.9262 103.871 35.2564C103.876 35.5866 103.799 35.9117 103.655 36.1602C103.511 36.4087 103.314 36.5602 103.105 36.5814Z" fill="#6C63FF"/>
<path d="M72.7862 47.9168L67.741 48.4097C67.4911 48.4341 67.2427 48.3518 67.0502 48.181C66.8577 48.0101 66.737 47.7647 66.7147 47.4987C66.6923 47.2327 66.7701 46.9678 66.9309 46.7625C67.0918 46.5571 67.3225 46.428 67.5723 46.4036L72.6175 45.9107C72.7413 45.8985 72.8661 45.9123 72.9848 45.9514C73.1034 45.9906 73.2136 46.0543 73.3091 46.1389C73.4045 46.2235 73.4833 46.3273 73.5409 46.4445C73.5986 46.5616 73.634 46.6898 73.6451 46.8216C73.6562 46.9534 73.6427 47.0864 73.6055 47.2128C73.5684 47.3392 73.5082 47.4566 73.4284 47.5583C73.3486 47.6601 73.2508 47.7441 73.1406 47.8056C73.0304 47.8671 72.91 47.9049 72.7862 47.9168Z" fill="#6C63FF"/>
<path d="M37.6631 28.667C38.9141 28.667 39.9283 27.6544 39.9283 26.4053C39.9283 25.1562 38.9141 24.1436 37.6631 24.1436C36.4121 24.1436 35.3979 25.1562 35.3979 26.4053C35.3979 27.6544 36.4121 28.667 37.6631 28.667Z" fill="#3F3D56"/>
<path d="M139.029 17.3585C140.28 17.3585 141.294 16.3459 141.294 15.0968C141.294 13.8477 140.28 12.8351 139.029 12.8351C137.778 12.8351 136.764 13.8477 136.764 15.0968C136.764 16.3459 137.778 17.3585 139.029 17.3585Z" fill="#3F3D56"/>
<path d="M108.405 63.7903C108.197 63.6078 108.032 63.3813 107.922 63.1272C107.813 62.8731 107.761 62.5979 107.772 62.3214C107.886 59.0364 107.344 55.7615 106.178 52.6875C106.079 52.4291 106.039 52.152 106.061 51.8762C106.083 51.6005 106.166 51.333 106.304 51.0933C106.437 50.863 106.618 50.6645 106.836 50.5116C107.053 50.3587 107.302 50.2553 107.564 50.2085C110.196 48.6221 112.896 48.1768 115.587 48.8851C116.021 48.8213 116.464 48.9141 116.836 49.1468C117.208 49.3795 117.484 49.7368 117.616 50.1547C118.706 53.6875 119.312 57.3513 119.418 61.0463C119.428 61.4896 119.278 61.9217 118.994 62.2631C118.711 62.6046 118.314 62.8326 117.876 62.9052L109.91 64.2192C109.643 64.2639 109.369 64.2485 109.109 64.1743C108.849 64.1001 108.608 63.969 108.405 63.7903Z" fill="#6C63FF"/>
<path d="M109.112 54.2189L115.817 53.1129C115.872 53.104 115.925 53.0842 115.972 53.0549C116.02 53.0255 116.061 52.987 116.094 52.9417C116.126 52.8964 116.15 52.8452 116.162 52.7909C116.175 52.7365 116.177 52.6803 116.168 52.6252C116.159 52.5702 116.139 52.5175 116.109 52.4702C116.08 52.4228 116.041 52.3818 115.996 52.3493C115.95 52.3169 115.899 52.2938 115.844 52.2812C115.79 52.2686 115.734 52.2669 115.678 52.2761L108.974 53.3821C108.863 53.4007 108.764 53.4624 108.699 53.5538C108.633 53.6451 108.607 53.7587 108.625 53.8695C108.643 53.9803 108.705 54.0793 108.796 54.1448C108.888 54.2103 109.001 54.2369 109.112 54.2189Z" fill="white"/>
<path d="M109.666 57.5661L116.371 56.4601C116.482 56.4418 116.581 56.3801 116.647 56.2887C116.712 56.1973 116.739 56.0836 116.72 55.9726C116.702 55.8616 116.64 55.7625 116.549 55.697C116.457 55.6315 116.343 55.605 116.232 55.6233L109.528 56.7293C109.472 56.7383 109.42 56.758 109.372 56.7874C109.325 56.8167 109.283 56.8552 109.251 56.9005C109.218 56.9458 109.195 56.9971 109.182 57.0514C109.17 57.1057 109.168 57.1619 109.177 57.217C109.186 57.272 109.206 57.3247 109.235 57.372C109.265 57.4194 109.303 57.4604 109.349 57.4929C109.394 57.5253 109.446 57.5485 109.5 57.561C109.555 57.5736 109.611 57.5753 109.666 57.5661Z" fill="white"/>
<path d="M110.22 60.9133L116.925 59.8073C117.036 59.789 117.135 59.7273 117.201 59.6359C117.266 59.5445 117.293 59.4308 117.274 59.3198C117.256 59.2088 117.194 59.1097 117.103 59.0442C117.011 58.9787 116.897 58.9522 116.786 58.9705L110.082 60.0765C110.027 60.0856 109.974 60.1054 109.926 60.1348C109.879 60.1642 109.838 60.2026 109.806 60.2479C109.773 60.2932 109.75 60.3444 109.737 60.3986C109.725 60.4529 109.723 60.5091 109.732 60.564C109.741 60.6189 109.761 60.6716 109.79 60.7189C109.82 60.7662 109.858 60.8072 109.903 60.8396C109.949 60.872 110 60.8952 110.054 60.9079C110.109 60.9205 110.165 60.9224 110.22 60.9133Z" fill="white"/>
<path d="M112.384 30.626C112.182 29.0073 113.331 27.5328 114.95 27.3326L138.023 24.4787C139.642 24.2785 141.118 25.4284 141.32 27.047L142.327 35.1212C142.529 36.7399 141.38 38.2143 139.761 38.4146L116.688 41.2684C115.069 41.4687 113.593 40.3188 113.391 38.7002L112.384 30.626Z" fill="#6C63FF"/>
<path d="M119.612 31.7321L120.122 35.8235L119.301 35.9251L118.791 31.8336L119.612 31.7321ZM122.439 32.1918C122.826 32.1439 123.154 32.2284 123.423 32.445C123.691 32.6578 123.853 32.9831 123.908 33.4207L124.145 35.3258L123.324 35.4273L123.101 33.6336C123.069 33.3757 122.98 33.1864 122.834 33.0655C122.687 32.9408 122.502 32.8922 122.28 32.9198C122.053 32.9478 121.882 33.0404 121.767 33.1975C121.655 33.3503 121.615 33.5556 121.647 33.8135L121.871 35.6072L121.05 35.7087L120.645 32.4613L121.466 32.3598L121.516 32.7643C121.608 32.61 121.733 32.4835 121.891 32.3845C122.053 32.2812 122.236 32.2169 122.439 32.1918ZM126.303 34.291L126.813 31.6983L127.686 31.5902L126.889 34.9863L125.893 35.1095L124.292 32.0101L125.171 31.9014L126.303 34.291ZM128.633 31.0803C128.488 31.0982 128.361 31.0683 128.252 30.9905C128.147 30.9083 128.086 30.7988 128.069 30.662C128.052 30.5253 128.084 30.4061 128.167 30.3047C128.253 30.1988 128.368 30.1369 128.513 30.119C128.657 30.1011 128.782 30.1333 128.888 30.2155C128.997 30.2932 129.06 30.4005 129.077 30.5373C129.094 30.6741 129.059 30.7954 128.973 30.9013C128.891 31.0028 128.777 31.0624 128.633 31.0803ZM129.085 31.4172L129.49 34.6645L128.669 34.766L128.265 31.5187L129.085 31.4172ZM131.053 31.8582L131.249 33.4291C131.263 33.5385 131.298 33.6155 131.355 33.66C131.416 33.7002 131.508 33.7125 131.634 33.697L132.015 33.6499L132.101 34.3415L131.585 34.4054C130.893 34.4909 130.505 34.1977 130.422 33.5255L130.226 31.9605L129.84 32.0083L129.756 31.3342L130.142 31.2864L130.042 30.4833L130.869 30.3811L130.969 31.1841L131.696 31.0942L131.78 31.7683L131.053 31.8582ZM135.616 32.1865C135.631 32.3037 135.636 32.4102 135.632 32.5059L133.258 32.7996C133.307 33.0317 133.412 33.2052 133.573 33.3202C133.734 33.4351 133.92 33.4796 134.131 33.4535C134.436 33.4158 134.637 33.258 134.733 32.9802L135.618 32.8707C135.563 33.1949 135.416 33.4751 135.175 33.7112C134.934 33.9434 134.621 34.0834 134.234 34.1312C133.921 34.1699 133.631 34.1364 133.364 34.0305C133.1 33.9203 132.882 33.7469 132.71 33.5103C132.541 33.2732 132.436 32.9886 132.395 32.6564C132.353 32.3204 132.385 32.0169 132.49 31.7459C132.595 31.475 132.762 31.2559 132.991 31.0887C133.22 30.9215 133.495 30.818 133.816 30.7784C134.124 30.7402 134.408 30.7725 134.667 30.8754C134.93 30.9778 135.143 31.1439 135.307 31.3736C135.474 31.599 135.577 31.87 135.616 32.1865ZM134.737 32.0572C134.707 31.8466 134.61 31.688 134.446 31.5814C134.281 31.4708 134.091 31.4288 133.876 31.4554C133.673 31.4805 133.509 31.5643 133.384 31.7068C133.262 31.8448 133.199 32.0252 133.195 32.2479L134.737 32.0572Z" fill="white"/>
</g>
<defs>
<clipPath id="clip0_227_3978">
<rect width="207" height="178" fill="white"/>
</clipPath>
</defs>
</svg>
