<svg width="76" height="76" viewBox="0 0 76 76" fill="none" xmlns="http://www.w3.org/2000/svg">
<g filter="url(#filter0_d_227_5027)">
<g clip-path="url(#clip0_227_5027)">
<rect x="18" y="10" width="40" height="40" rx="20" fill="#7A75EB"/>
<path d="M24 25.3333C24 23.4924 25.4924 22 27.3333 22H48.67C50.5091 22 52 23.4909 52 25.33V47.6667C52 49.5076 50.5076 51 48.6667 51H27.3333C25.4924 51 24 49.5076 24 47.6667V25.3333Z" fill="white"/>
<rect x="28" y="26" width="14" height="2" rx="1" fill="#F8F8F8"/>
<rect x="28" y="29" width="12" height="1" rx="0.5" fill="#F8F8F8"/>
<rect x="28" y="32" width="18" height="1" rx="0.5" fill="#F8F8F8"/>
<rect x="28" y="34" width="20" height="1" rx="0.5" fill="#F8F8F8"/>
<rect x="28" y="36" width="20" height="1" rx="0.5" fill="#F8F8F8"/>
<rect x="28" y="38" width="20" height="1" rx="0.5" fill="#F8F8F8"/>
<rect x="28" y="40" width="20" height="1" rx="0.5" fill="#F8F8F8"/>
<g filter="url(#filter1_d_227_5027)">
<circle cx="38.5" cy="23.5" r="7.5" fill="white"/>
</g>
<path d="M39.4165 19.375V21.2083C39.4165 21.3299 39.4648 21.4465 39.5507 21.5324C39.6367 21.6184 39.7533 21.6667 39.8748 21.6667H41.7082" stroke="#7A75EB" stroke-linecap="round" stroke-linejoin="round"/>
<path d="M40.7915 27.625H36.2082C35.9651 27.625 35.7319 27.5284 35.56 27.3565C35.3881 27.1846 35.2915 26.9514 35.2915 26.7083V20.2917C35.2915 20.0486 35.3881 19.8154 35.56 19.6435C35.7319 19.4716 35.9651 19.375 36.2082 19.375H39.4165L41.7082 21.6667V26.7083C41.7082 26.9514 41.6116 27.1846 41.4397 27.3565C41.2678 27.5284 41.0346 27.625 40.7915 27.625Z" stroke="#7A75EB" stroke-linecap="round" stroke-linejoin="round"/>
<path d="M37.125 22.125H37.5833" stroke="#7A75EB" stroke-linecap="round" stroke-linejoin="round"/>
<path d="M37.125 23.9584H39.875" stroke="#7A75EB" stroke-linecap="round" stroke-linejoin="round"/>
<path d="M37.125 25.7916H39.875" stroke="#7A75EB" stroke-linecap="round" stroke-linejoin="round"/>
</g>
<rect x="17" y="9" width="42" height="42" rx="21" stroke="white" stroke-width="2"/>
</g>
<defs>
<filter id="filter0_d_227_5027" x="0" y="0" width="76" height="76" filterUnits="userSpaceOnUse" color-interpolation-filters="sRGB">
<feFlood flood-opacity="0" result="BackgroundImageFix"/>
<feColorMatrix in="SourceAlpha" type="matrix" values="0 0 0 0 0 0 0 0 0 0 0 0 0 0 0 0 0 0 127 0" result="hardAlpha"/>
<feOffset dy="8"/>
<feGaussianBlur stdDeviation="8"/>
<feComposite in2="hardAlpha" operator="out"/>
<feColorMatrix type="matrix" values="0 0 0 0 0.117647 0 0 0 0 0.160784 0 0 0 0 0.231373 0 0 0 0.04 0"/>
<feBlend mode="normal" in2="BackgroundImageFix" result="effect1_dropShadow_227_5027"/>
<feBlend mode="normal" in="SourceGraphic" in2="effect1_dropShadow_227_5027" result="shape"/>
</filter>
<filter id="filter1_d_227_5027" x="27" y="14" width="23" height="23" filterUnits="userSpaceOnUse" color-interpolation-filters="sRGB">
<feFlood flood-opacity="0" result="BackgroundImageFix"/>
<feColorMatrix in="SourceAlpha" type="matrix" values="0 0 0 0 0 0 0 0 0 0 0 0 0 0 0 0 0 0 127 0" result="hardAlpha"/>
<feOffset dy="2"/>
<feGaussianBlur stdDeviation="2"/>
<feComposite in2="hardAlpha" operator="out"/>
<feColorMatrix type="matrix" values="0 0 0 0 0.0872331 0 0 0 0 0.359128 0 0 0 0 0.866667 0 0 0 0.12 0"/>
<feBlend mode="normal" in2="BackgroundImageFix" result="effect1_dropShadow_227_5027"/>
<feBlend mode="normal" in="SourceGraphic" in2="effect1_dropShadow_227_5027" result="shape"/>
</filter>
<clipPath id="clip0_227_5027">
<rect x="18" y="10" width="40" height="40" rx="20" fill="white"/>
</clipPath>
</defs>
</svg>
