<svg width="15" height="16" viewBox="0 0 15 16" fill="none" xmlns="http://www.w3.org/2000/svg">
<path d="M7.50001 5.54133e-08C6.01549 -0.000178915 4.56432 0.433164 3.33032 1.24514C2.09632 2.05711 1.13502 3.21117 0.568186 4.56114C0.00135487 5.9111 -0.145501 7.39623 0.146223 8.82838C0.437947 10.2605 1.15512 11.5753 2.2069 12.6061L4.48663 14.7999C5.29444 15.5696 6.37487 16 7.49939 16C8.62391 16 9.70433 15.5696 10.5121 14.7999L12.8031 12.5962C13.8521 11.5643 14.5664 10.2495 14.8559 8.81815C15.1453 7.38675 14.9968 5.90306 14.4291 4.55471C13.8614 3.20637 12.9001 2.05395 11.6668 1.24321C10.4334 0.432468 8.98332 -0.000174762 7.50001 5.54133e-08ZM11.0446 10.8475L8.76361 13.0426C8.42463 13.3656 7.97126 13.5462 7.49939 13.5462C7.02751 13.5462 6.57414 13.3656 6.23516 13.0426L3.96419 10.8574C3.26547 10.1699 2.7895 9.29402 2.59639 8.34049C2.40329 7.38696 2.50172 6.39851 2.87924 5.49999C3.25677 4.60146 3.89646 3.83318 4.71752 3.29216C5.53857 2.75114 6.50417 2.46167 7.49234 2.46029C8.48051 2.45892 9.44693 2.74571 10.2695 3.28444C11.0921 3.82318 11.734 4.58968 12.1141 5.48715C12.4943 6.38462 12.5955 7.37279 12.4051 8.32686C12.2148 9.28092 11.7413 10.1581 11.0446 10.8475ZM8.74986 7.37106C8.74986 7.61428 8.67656 7.85204 8.53922 8.05427C8.40189 8.2565 8.20669 8.41412 7.97831 8.50719C7.74993 8.60027 7.49862 8.62462 7.25618 8.57717C7.01373 8.52972 6.79103 8.4126 6.61623 8.24062C6.44144 8.06864 6.3224 7.84952 6.27418 7.61097C6.22595 7.37243 6.2507 7.12517 6.3453 6.90046C6.4399 6.67576 6.6001 6.4837 6.80563 6.34857C7.01117 6.21345 7.25281 6.14132 7.50001 6.14132C7.83149 6.14132 8.1494 6.27088 8.38379 6.50151C8.61818 6.73213 8.74986 7.04491 8.74986 7.37106Z" fill="#8E72EB"/>
</svg>
