<svg width="28" height="28" viewBox="0 0 28 28" fill="none" xmlns="http://www.w3.org/2000/svg">
<path fill-rule="evenodd" clip-rule="evenodd" d="M9.38008 10.6802H18.7C21.2963 10.6802 23.4014 12.7388 23.4014 15.2779V20.715C23.4014 23.2541 21.2963 25.3127 18.7 25.3127H9.38008C6.78375 25.3127 4.67871 23.2541 4.67871 20.715V15.2779C4.67871 12.7388 6.78375 10.6802 9.38008 10.6802ZM14.0349 20.1687C14.5833 20.1687 15.0198 19.7419 15.0198 19.2056V16.776C15.0198 16.2507 14.5833 15.8239 14.0349 15.8239C13.4978 15.8239 13.0613 16.2507 13.0613 16.776V19.2056C13.0613 19.7419 13.4978 20.1687 14.0349 20.1687Z" fill="#00060C"/>
<path d="M20.1217 9.04943V10.6692C19.73 10.5597 19.316 10.505 18.8907 10.505H18.1633V9.04943C18.1633 6.82774 16.3168 5.02194 14.045 5.02194C11.7732 5.02194 9.92666 6.8168 9.91547 9.02754V10.505H9.19924C8.76279 10.505 8.34872 10.5597 7.95703 10.6801V9.04943C7.96822 5.76615 10.6877 3.10669 14.0226 3.10669C17.4023 3.10669 20.1217 5.76615 20.1217 9.04943" fill="#00060C"/>
</svg>
