<svg width="28" height="27" viewBox="0 0 28 27" fill="none" xmlns="http://www.w3.org/2000/svg">
<path d="M25.0535 17.8728C25.0535 20.9455 22.5865 23.4346 19.5138 23.4456H19.5028H8.58859C5.52688 23.4456 3.02686 20.9676 3.02686 17.8948V17.8838C3.02686 17.8838 3.03346 13.0093 3.04227 10.5578C3.04338 10.0974 3.57202 9.8397 3.93215 10.126C6.54892 12.2021 11.2285 15.9873 11.2869 16.0369C12.0688 16.6636 13.06 17.0171 14.0732 17.0171C15.0865 17.0171 16.0777 16.6636 16.8596 16.0248C16.918 15.9862 21.4929 12.3144 24.1493 10.2042C24.5106 9.91679 25.0414 10.1745 25.0425 10.6338C25.0535 13.0666 25.0535 17.8728 25.0535 17.8728" fill="#00060C"/>
<path d="M24.4766 6.56581C23.5228 4.76844 21.6462 3.62085 19.5801 3.62085H8.58877C6.52267 3.62085 4.64599 4.76844 3.69224 6.56581C3.47858 6.9678 3.5799 7.46891 3.93563 7.75305L12.113 14.2939C12.6857 14.7564 13.3796 14.9866 14.0734 14.9866C14.0778 14.9866 14.0811 14.9866 14.0844 14.9866C14.0877 14.9866 14.0921 14.9866 14.0954 14.9866C14.7893 14.9866 15.4831 14.7564 16.0558 14.2939L24.2332 7.75305C24.5889 7.46891 24.6903 6.9678 24.4766 6.56581Z" fill="#00060C"/>
</svg>
