<svg width="15" height="23" viewBox="0 0 15 23" fill="none" xmlns="http://www.w3.org/2000/svg">
<path d="M10.3125 0H4.6875C3.44475 0.00148862 2.25334 0.495827 1.37458 1.37458C0.495827 2.25334 0.00148862 3.44475 0 4.6875V17.8125C0.00148862 19.0552 0.495827 20.2467 1.37458 21.1254C2.25334 22.0042 3.44475 22.4985 4.6875 22.5H10.3125C11.5552 22.4985 12.7467 22.0042 13.6254 21.1254C14.5042 20.2467 14.9985 19.0552 15 17.8125V4.6875C14.9985 3.44475 14.5042 2.25334 13.6254 1.37458C12.7467 0.495827 11.5552 0.00148862 10.3125 0V0ZM4.6875 1.875H10.3125C11.0584 1.875 11.7738 2.17132 12.3012 2.69876C12.8287 3.22621 13.125 3.94158 13.125 4.6875V15H1.875V4.6875C1.875 3.94158 2.17132 3.22621 2.69876 2.69876C3.22621 2.17132 3.94158 1.875 4.6875 1.875ZM10.3125 20.625H4.6875C3.94158 20.625 3.22621 20.3287 2.69876 19.8012C2.17132 19.2738 1.875 18.5584 1.875 17.8125V16.875H13.125V17.8125C13.125 18.5584 12.8287 19.2738 12.3012 19.8012C11.7738 20.3287 11.0584 20.625 10.3125 20.625Z" fill="#8E72EB"/>
</svg>
