<svg width="28" height="27" viewBox="0 0 28 27" fill="none" xmlns="http://www.w3.org/2000/svg">
<path d="M20.8878 9.88464L19.9576 9.99021L19.9576 9.99021L20.8878 9.88464ZM21.3803 14.224L22.3105 14.1184L22.3105 14.1184L21.3803 14.224ZM6.65168 14.224L5.72152 14.1184L5.72152 14.1184L6.65168 14.224ZM7.14418 9.88464L8.07434 9.99021L7.14418 9.88464ZM5.69848 16.3791L4.98564 15.7723L4.98564 15.7723L5.69848 16.3791ZM22.3335 16.3791L21.6207 16.9859L21.6207 16.9859L22.3335 16.3791ZM16.516 4.81683H15.5798C15.5798 5.21697 15.8342 5.57287 16.2127 5.70249L16.516 4.81683ZM11.516 4.81683L11.8193 5.70249C12.1978 5.57287 12.4522 5.21697 12.4522 4.81683H11.516ZM18.1966 22.3552C18.378 21.871 18.1326 21.3315 17.6485 21.15C17.1644 20.9686 16.6248 21.214 16.4434 21.6981L18.1966 22.3552ZM11.5886 21.6981C11.4071 21.214 10.8676 20.9686 10.3835 21.15C9.89933 21.3315 9.65396 21.871 9.8354 22.3552L11.5886 21.6981ZM20.3786 18.8878H7.65338V20.7601H20.3786V18.8878ZM19.9576 9.99021L20.4501 14.3295L22.3105 14.1184L21.818 9.77907L19.9576 9.99021ZM7.58184 14.3295L8.07434 9.99021L6.21402 9.77907L5.72152 14.1184L7.58184 14.3295ZM6.41133 16.9859C7.0606 16.2232 7.47108 15.3054 7.58184 14.3295L5.72152 14.1184C5.65487 14.7056 5.4061 15.2784 4.98564 15.7723L6.41133 16.9859ZM20.4501 14.3295C20.5609 15.3054 20.9714 16.2232 21.6207 16.9859L23.0463 15.7723C22.6259 15.2784 22.3771 14.7056 22.3105 14.1184L20.4501 14.3295ZM7.65338 18.8878C6.97002 18.8878 6.49711 18.551 6.28191 18.1718C6.07594 17.8088 6.07778 17.3778 6.41133 16.9859L4.98564 15.7723C4.11099 16.7999 4.08345 18.0912 4.65357 19.0958C5.21445 20.0842 6.32309 20.7601 7.65338 20.7601V18.8878ZM20.3786 20.7601C21.7089 20.7601 22.8175 20.0842 23.3784 19.0958C23.9485 18.0912 23.921 16.7999 23.0463 15.7723L21.6207 16.9859C21.9542 17.3778 21.956 17.8088 21.7501 18.1718C21.5349 18.551 21.062 18.8878 20.3786 18.8878V20.7601ZM17.4521 4.81683V4.7026H15.5798V4.81683H17.4521ZM21.818 9.77907C21.5048 7.0201 19.4599 4.8353 16.8192 3.93117L16.2127 5.70249C18.291 6.41408 19.7396 8.0695 19.9576 9.99021L21.818 9.77907ZM12.4522 4.81683V4.7026H10.5799V4.81683H12.4522ZM8.07434 9.99021C8.29234 8.0695 9.74095 6.41408 11.8193 5.70249L11.2128 3.93117C8.57211 4.8353 6.52715 7.0201 6.21402 9.77907L8.07434 9.99021ZM14.016 3.13877C14.8797 3.13877 15.5798 3.83892 15.5798 4.7026H17.4521C17.4521 2.8049 15.9137 1.2665 14.016 1.2665V3.13877ZM14.016 1.2665C12.1183 1.2665 10.5799 2.8049 10.5799 4.7026H12.4522C12.4522 3.83892 13.1523 3.13877 14.016 3.13877V1.2665ZM16.4434 21.6981C16.1047 22.6018 15.1664 23.2932 14.016 23.2932V25.1654C15.9164 25.1654 17.5734 24.018 18.1966 22.3552L16.4434 21.6981ZM14.016 23.2932C12.8656 23.2932 11.9273 22.6018 11.5886 21.6981L9.8354 22.3552C10.4586 24.018 12.1156 25.1654 14.016 25.1654V23.2932Z" fill="#7076EA"/>
</svg>
