<svg width="28" height="27" viewBox="0 0 28 27" fill="none" xmlns="http://www.w3.org/2000/svg">
<path d="M21.0292 10.1539L20.099 10.2595L21.0292 10.1539ZM21.5217 14.4933L22.4518 14.3877L21.5217 14.4933ZM6.79304 14.4933L5.86287 14.3877L6.79304 14.4933ZM7.28554 10.1539L8.2157 10.2595L7.28554 10.1539ZM5.83984 16.6484L5.127 16.0416H5.127L5.83984 16.6484ZM22.4749 16.6484L21.762 17.2552L21.762 17.2552L22.4749 16.6484ZM16.6573 5.08612H15.7212C15.7212 5.48626 15.9755 5.84216 16.3541 5.97178L16.6573 5.08612ZM11.6574 5.08612L11.9606 5.97178C12.3392 5.84216 12.5935 5.48626 12.5935 5.08612H11.6574ZM18.3379 22.6245C18.5194 22.1403 18.274 21.6008 17.7899 21.4193C17.3057 21.2379 16.7662 21.4833 16.5848 21.9674L18.3379 22.6245ZM11.7299 21.9674C11.5485 21.4833 11.009 21.2379 10.5248 21.4193C10.0407 21.6008 9.79531 22.1403 9.97675 22.6245L11.7299 21.9674ZM20.52 19.1571H7.79474V21.0294H20.52V19.1571ZM20.099 10.2595L20.5915 14.5988L22.4518 14.3877L21.9593 10.0484L20.099 10.2595ZM7.7232 14.5988L8.2157 10.2595L6.35538 10.0484L5.86287 14.3877L7.7232 14.5988ZM6.55269 17.2552C7.20196 16.4925 7.61244 15.5747 7.7232 14.5988L5.86287 14.3877C5.79623 14.9749 5.54746 15.5477 5.127 16.0416L6.55269 17.2552ZM20.5915 14.5988C20.7023 15.5747 21.1127 16.4925 21.762 17.2552L23.1877 16.0416C22.7672 15.5477 22.5185 14.9749 22.4518 14.3877L20.5915 14.5988ZM7.79474 19.1571C7.11138 19.1571 6.63847 18.8203 6.42327 18.4411C6.2173 18.0781 6.21914 17.6471 6.55269 17.2552L5.127 16.0416C4.25235 17.0691 4.22481 18.3605 4.79493 19.3651C5.3558 20.3535 6.46444 21.0294 7.79474 21.0294V19.1571ZM20.52 21.0294C21.8502 21.0294 22.9589 20.3535 23.5198 19.3651C24.0899 18.3605 24.0623 17.0691 23.1877 16.0416L21.762 17.2552C22.0956 17.6471 22.0974 18.0781 21.8914 18.4411C21.6762 18.8203 21.2033 19.1571 20.52 19.1571V21.0294ZM17.5934 5.08612V4.97189H15.7212V5.08612H17.5934ZM21.9593 10.0484C21.6462 7.28939 19.6012 5.10459 16.9606 4.20046L16.3541 5.97178C18.4324 6.68337 19.881 8.33879 20.099 10.2595L21.9593 10.0484ZM12.5935 5.08612V4.97189H10.7212V5.08612H12.5935ZM8.2157 10.2595C8.43369 8.33879 9.8823 6.68337 11.9606 5.97178L11.3541 4.20046C8.71347 5.10459 6.66851 7.28939 6.35538 10.0484L8.2157 10.2595ZM14.1573 3.40806C15.021 3.40806 15.7212 4.10821 15.7212 4.97189H17.5934C17.5934 3.07418 16.0551 1.53579 14.1573 1.53579V3.40806ZM14.1573 1.53579C12.2596 1.53579 10.7212 3.07418 10.7212 4.97189H12.5935C12.5935 4.10821 13.2937 3.40806 14.1573 3.40806V1.53579ZM16.5848 21.9674C16.2461 22.8711 15.3077 23.5625 14.1573 23.5625V25.4347C16.0577 25.4347 17.7148 24.2873 18.3379 22.6245L16.5848 21.9674ZM14.1573 23.5625C13.007 23.5625 12.0686 22.8711 11.7299 21.9674L9.97675 22.6245C10.5999 24.2873 12.257 25.4347 14.1573 25.4347V23.5625Z" fill="#707B81"/>
</svg>
