<svg width="17" height="17" viewBox="0 0 17 17" fill="none" xmlns="http://www.w3.org/2000/svg">
<path fill-rule="evenodd" clip-rule="evenodd" d="M13.4492 8.16981C13.4492 11.4264 10.8092 14.0664 7.55262 14.0664C4.29601 14.0664 1.656 11.4264 1.656 8.16981C1.656 4.91319 4.29601 2.27319 7.55262 2.27319C10.8092 2.27319 13.4492 4.91319 13.4492 8.16981ZM12.204 14.1206C10.9218 15.1242 9.30709 15.7224 7.55262 15.7224C3.38142 15.7224 0 12.341 0 8.16981C0 3.99861 3.38142 0.617188 7.55262 0.617188C11.7238 0.617188 15.1052 3.99861 15.1052 8.16981C15.1052 9.98996 14.4614 11.6597 13.389 12.9638L15.9324 15.551C16.253 15.8771 16.2485 16.4013 15.9224 16.7219C15.5963 17.0425 15.072 17.038 14.7515 16.7119L12.204 14.1206Z" fill="#202020"/>
</svg>
