<svg width="27" height="27" viewBox="0 0 27 27" fill="none" xmlns="http://www.w3.org/2000/svg">
<path d="M13.8184 13.0668C13.7854 13.0668 13.7633 13.0668 13.7303 13.0668C13.6752 13.0558 13.5981 13.0558 13.5321 13.0668C10.3382 12.9677 7.92627 10.4567 7.92627 7.36192C7.92627 4.2121 10.4924 1.646 13.6422 1.646C16.792 1.646 19.3581 4.2121 19.3581 7.36192C19.3471 10.4567 16.9242 12.9677 13.8514 13.0668C13.8404 13.0668 13.8294 13.0668 13.8184 13.0668ZM13.6422 3.298C11.4065 3.298 9.57827 5.12621 9.57827 7.36192C9.57827 9.56458 11.2963 11.3377 13.488 11.4148C13.5431 11.4038 13.6973 11.4038 13.8404 11.4148C15.999 11.3157 17.6951 9.54256 17.7061 7.36192C17.7061 5.12621 15.8779 3.298 13.6422 3.298Z" fill="#707B81"/>
<path d="M13.8295 25.1044C11.6709 25.1044 9.50129 24.5537 7.8603 23.4524C6.32945 22.4392 5.49243 21.0515 5.49243 19.5427C5.49243 18.0338 6.32945 16.6351 7.8603 15.6109C11.1643 13.4192 16.5168 13.4192 19.7988 15.6109C21.3186 16.6241 22.1666 18.0118 22.1666 19.5206C22.1666 21.0295 21.3296 22.4282 19.7988 23.4524C18.1468 24.5537 15.9881 25.1044 13.8295 25.1044ZM8.77441 16.9986C7.71713 17.7034 7.14443 18.6065 7.14443 19.5537C7.14443 20.4898 7.72814 21.3929 8.77441 22.0867C11.5167 23.926 16.1423 23.926 18.8846 22.0867C19.9419 21.3819 20.5146 20.4788 20.5146 19.5316C20.5146 18.5955 19.9309 17.6924 18.8846 16.9986C16.1423 15.1704 11.5167 15.1704 8.77441 16.9986Z" fill="#707B81"/>
</svg>
