<svg width="27" height="27" viewBox="0 0 27 27" fill="none" xmlns="http://www.w3.org/2000/svg">
<path d="M13.6769 12.7975C13.6439 12.7975 13.6219 12.7975 13.5888 12.7975C13.5337 12.7865 13.4567 12.7865 13.3906 12.7975C10.1967 12.6984 7.78479 10.1874 7.78479 7.09263C7.78479 3.94282 10.3509 1.37671 13.5007 1.37671C16.6505 1.37671 19.2166 3.94282 19.2166 7.09263C19.2056 10.1874 16.7827 12.6984 13.71 12.7975C13.6989 12.7975 13.6879 12.7975 13.6769 12.7975ZM13.5007 3.02871C11.265 3.02871 9.43679 4.85692 9.43679 7.09263C9.43679 9.2953 11.1549 11.0684 13.3465 11.1455C13.4016 11.1345 13.5558 11.1345 13.699 11.1455C15.8576 11.0464 17.5536 9.27327 17.5646 7.09263C17.5646 4.85692 15.7364 3.02871 13.5007 3.02871Z" fill="#7076EA"/>
<path d="M13.688 24.8351C11.5294 24.8351 9.35974 24.2844 7.71876 23.1831C6.1879 22.1699 5.35089 20.7822 5.35089 19.2734C5.35089 17.7645 6.1879 16.3659 7.71876 15.3416C11.0228 13.15 16.3752 13.15 19.6572 15.3416C21.1771 16.3548 22.0251 17.7425 22.0251 19.2513C22.0251 20.7602 21.1881 22.1589 19.6572 23.1831C18.0052 24.2844 15.8466 24.8351 13.688 24.8351ZM8.63286 16.7293C7.57558 17.4341 7.00289 18.3372 7.00289 19.2844C7.00289 20.2205 7.5866 21.1236 8.63286 21.8175C11.3752 23.6567 16.0008 23.6567 18.7431 21.8175C19.8004 21.1126 20.3731 20.2095 20.3731 19.2624C20.3731 18.3262 19.7894 17.4231 18.7431 16.7293C16.0008 14.9011 11.3752 14.9011 8.63286 16.7293Z" fill="#7076EA"/>
</svg>
